<?xml version="1.0" encoding="UTF-8" standalone="no"?>
<!-- Created with Inkscape (http://www.inkscape.org/) -->

<svg
   xmlns:dc="http://purl.org/dc/elements/1.1/"
   xmlns:cc="http://creativecommons.org/ns#"
   xmlns:rdf="http://www.w3.org/1999/02/22-rdf-syntax-ns#"
   xmlns:svg="http://www.w3.org/2000/svg"
   xmlns="http://www.w3.org/2000/svg"
   xmlns:sodipodi="http://sodipodi.sourceforge.net/DTD/sodipodi-0.dtd"
   xmlns:inkscape="http://www.inkscape.org/namespaces/inkscape"
   width="190.20665mm"
   height="45.328915mm"
   viewBox="0 0 673.96057 160.61426"
   id="svg2"
   version="1.1"
   inkscape:version="0.91 r13725"
   sodipodi:docname="logo.svg">
  <defs
     id="defs4" />
  <sodipodi:namedview
     id="base"
     pagecolor="#ffffff"
     bordercolor="#666666"
     borderopacity="1.0"
     inkscape:pageopacity="0.0"
     inkscape:pageshadow="2"
     inkscape:zoom="0.98994949"
     inkscape:cx="279.55217"
     inkscape:cy="92.264082"
     inkscape:document-units="px"
     inkscape:current-layer="layer1"
     showgrid="false"
     fit-margin-top="0"
     fit-margin-left="0"
     fit-margin-right="0"
     fit-margin-bottom="0"
     inkscape:window-width="1366"
     inkscape:window-height="750"
     inkscape:window-x="0"
     inkscape:window-y="0"
     inkscape:window-maximized="1" />
  <metadata
     id="metadata7">
    <rdf:RDF>
      <cc:Work
         rdf:about="">
        <dc:format>image/svg+xml</dc:format>
        <dc:type
           rdf:resource="http://purl.org/dc/dcmitype/StillImage" />
        <dc:title></dc:title>
      </cc:Work>
    </rdf:RDF>
  </metadata>
  <g
     inkscape:label="Layer 1"
     inkscape:groupmode="layer"
     id="layer1"
     transform="translate(-43.247762,-445.87396)">
    <rect
       style="fill:#db3273;fill-opacity:1;stroke:none;stroke-width:1;stroke-miterlimit:4;stroke-dasharray:none;stroke-opacity:1"
       id="rect4140"
       width="385.87827"
       height="160.61426"
       x="331.33005"
       y="445.87396" />
    <g
       style="font-style:normal;font-weight:normal;font-size:131.65516663px;line-height:125%;font-family:sans-serif;letter-spacing:0px;word-spacing:0px;fill:#1a1a1a;fill-opacity:0.94117647;stroke:none;stroke-width:1px;stroke-linecap:butt;stroke-linejoin:miter;stroke-opacity:1"
       id="text4136">
      <path
         d="m 71.597336,567.80549 0,3.4071 -28.349574,0 0,-3.4071 9.771282,-1.73568 29.37813,-81.77021 12.214102,0 30.535254,81.77021 10.92841,1.73568 0,3.4071 -36.449453,0 0,-3.4071 11.571253,-1.73568 -8.54987,-24.8782 -33.942348,0 -8.678441,24.8782 11.571255,1.73568 z m 13.821221,-74.24888 -14.785492,41.84937 30.020975,0 -15.235483,-41.84937 z"
         style="font-style:normal;font-variant:normal;font-weight:normal;font-stretch:normal;font-family:'Liberation Serif';-inkscape-font-specification:'Liberation Serif';fill:#1a1a1a;fill-opacity:0.94117647"
         id="path4145"
         inkscape:connector-curvature="0" />
      <path
         d="m 158.5746,572.49828 q -6.17134,0 -9.257,-3.66423 -3.02139,-3.66423 -3.02139,-10.28556 l 0,-42.36365 -7.90702,0 0,-2.89281 8.03559,-2.50711 6.49276,-13.69265 4.04994,0 0,13.69265 13.82122,0 0,5.39992 -13.82122,0 0,41.20652 q 0,4.17851 1.86426,6.29991 1.92854,2.1214 5.01421,2.1214 2.37853,0 4.69279,-0.32143 2.37853,-0.32142 4.37136,-0.70713 l 0,4.17851 q -0.96427,0.64285 -2.57139,1.28569 -1.54284,0.64285 -3.47138,1.09284 -1.86426,0.51428 -3.98565,0.83571 -2.1214,0.32142 -4.30708,0.32142 z"
         style="font-style:normal;font-variant:normal;font-weight:normal;font-stretch:normal;font-family:'Liberation Serif';-inkscape-font-specification:'Liberation Serif';fill:#1a1a1a;fill-opacity:0.94117647"
         id="path4147"
         inkscape:connector-curvature="0" />
      <g
         id="g4184">
        <path
           inkscape:connector-curvature="0"
           id="path4149"
           style="font-style:normal;font-variant:normal;font-weight:normal;font-stretch:normal;font-family:'Liberation Serif';-inkscape-font-specification:'Liberation Serif';fill:#1a1a1a;fill-opacity:0.94117647"
           d="m 197.20974,566.71265 10.34984,1.60712 0,2.89282 -31.30667,0 0,-2.89282 10.28556,-1.60712 0,-82.41305 -10.28556,-1.54283 0,-2.89281 20.95683,0 0,86.84869 z" />
      </g>
      <path
         d="m 240.02337,509.43494 q 4.11423,0 7.64989,0.77142 3.53566,0.77142 6.10705,2.63567 2.57139,1.86426 3.98566,5.0785 1.47854,3.14995 1.47854,7.97131 l 0,40.82081 7.52132,1.60712 0,2.89282 -16.58546,0 -1.22142,-6.04277 q -0.96427,0.96427 -2.63567,2.24997 -1.60712,1.28569 -3.92137,2.44282 -2.31425,1.09284 -5.39992,1.86425 -3.02138,0.77142 -6.7499,0.77142 -4.37136,0 -7.39274,-1.34998 -2.9571,-1.34998 -4.75707,-3.72851 -1.79998,-2.44283 -2.57139,-5.72135 -0.77142,-3.3428 -0.77142,-7.19989 0,-3.98565 0.96427,-6.87847 0.96427,-2.9571 2.69996,-4.94992 1.73569,-1.99283 4.04994,-3.21424 2.37853,-1.2857 5.07849,-1.99283 2.76425,-0.70713 5.78563,-0.96427 3.08567,-0.25714 6.17134,-0.32142 l 9.06415,-0.25714 0,-9.44986 q 0,-2.69996 -0.45,-4.88564 -0.44999,-2.24997 -1.54283,-3.85709 -1.02856,-1.60711 -2.82853,-2.5071 -1.79997,-0.89999 -4.49993,-0.89999 -3.08567,0 -6.23562,0.8357 -3.14996,0.83571 -5.52849,2.18569 l -2.18568,7.52131 -3.59995,0 0,-13.17837 q 4.17851,-0.89999 8.61416,-1.54284 4.49993,-0.70713 9.70699,-0.70713 z m 8.54988,30.98525 -8.42131,0.25714 q -3.7928,0.12857 -6.55704,0.77142 -2.76424,0.57856 -4.56422,2.05711 -1.79997,1.47855 -2.69996,4.04994 -0.89998,2.57139 -0.89998,6.55704 0,11.31412 9.19272,11.31412 4.37136,0 7.52131,-0.96427 3.21424,-1.02856 6.42848,-2.57139 l 0,-21.47111 z"
         style="font-style:normal;font-variant:normal;font-weight:normal;font-stretch:normal;font-family:'Liberation Serif';-inkscape-font-specification:'Liberation Serif';fill:#1a1a1a;fill-opacity:0.94117647"
         id="path4151"
         inkscape:connector-curvature="0" />
      <path
         d="m 314.9794,554.24141 q 0,4.04994 -1.2857,7.45703 -1.22141,3.34281 -3.92137,5.78563 -2.69995,2.37854 -7.00703,3.72852 -4.2428,1.28569 -10.28556,1.28569 -3.02139,0 -5.97848,-0.38571 -2.89282,-0.32142 -5.39992,-0.8357 -2.50711,-0.44999 -4.37137,-0.96427 -1.86425,-0.51428 -2.69996,-0.8357 l 0,-14.84978 2.89282,0 3.14995,8.4213 q 1.99283,1.79998 5.14278,3.08567 3.14995,1.2857 7.39275,1.2857 5.97848,0 9.19272,-2.57139 3.27852,-2.63568 3.27852,-8.09988 0,-3.21424 -1.34998,-5.27135 -1.34998,-2.1214 -3.53566,-3.53566 -2.18568,-1.41427 -5.01421,-2.31425 -2.76425,-0.96428 -5.72135,-1.92855 -2.89281,-0.96427 -5.72134,-2.18568 -2.76424,-1.22141 -4.94992,-3.14995 -2.18569,-1.92854 -3.53567,-4.82136 -1.34998,-2.89281 -1.34998,-7.19989 0,-4.11422 1.47855,-7.32846 1.47855,-3.21424 4.11423,-5.39992 2.69996,-2.18568 6.36419,-3.27852 3.72851,-1.15713 8.16416,-1.15713 4.37136,0 8.54987,0.64285 4.17851,0.57856 8.0356,1.34998 l 0,13.17837 -3.02139,0 -2.69996,-7.00703 q -1.6714,-1.47855 -4.56421,-2.24997 -2.89282,-0.77142 -6.17134,-0.77142 -5.20706,0 -7.97131,2.57139 -2.69996,2.57139 -2.69996,6.94276 0,2.95709 1.34998,4.88564 1.34998,1.86425 3.53566,3.21423 2.24997,1.2857 5.0785,2.24997 2.82853,0.96427 5.78563,1.99283 2.95709,1.02855 5.78562,2.37853 2.82853,1.2857 5.01421,3.34281 2.24997,2.05711 3.59995,5.01421 1.34998,2.9571 1.34998,7.32846 z"
         style="font-style:normal;font-variant:normal;font-weight:normal;font-stretch:normal;font-family:'Liberation Serif';-inkscape-font-specification:'Liberation Serif';fill:#1a1a1a;fill-opacity:0.94117647"
         id="path4153"
         inkscape:connector-curvature="0" />
      <path
         d="m 426.83485,490.08523 -11.57125,-1.6714 0,-3.40709 29.37813,0 0,3.40709 -11.05698,1.6714 0,81.12736 -6.23562,0 -53.16349,-77.52741 0,72.38463 11.57126,1.73568 0,3.4071 -29.37813,0 0,-3.4071 11.05698,-1.73568 0,-75.98458 -11.05698,-1.6714 0,-3.40709 26.09961,0 44.35647,63.83475 0,-58.75626 z"
         style="font-style:normal;font-variant:normal;font-weight:normal;font-stretch:normal;font-family:'Liberation Serif';-inkscape-font-specification:'Liberation Serif';fill:#ffffff;fill-opacity:0.94117647"
         id="path4155"
         inkscape:connector-curvature="0" />
      <path
         d="m 508.54076,540.67733 q 0,15.36405 -6.87847,23.5925 -6.87847,8.22845 -21.40682,8.22845 -13.62837,0 -20.57112,-8.16416 -6.94275,-8.16417 -6.94275,-23.65679 0,-15.29977 6.94275,-23.39965 6.94275,-8.09988 21.0854,-8.09988 13.75693,0 20.76397,7.97131 7.00704,7.90703 7.00704,23.52822 z m -11.57126,0 q 0,-6.23562 -0.8357,-11.12126 -0.8357,-4.94993 -2.82853,-8.29273 -1.92854,-3.4071 -5.14278,-5.14278 -3.21423,-1.79998 -7.90702,-1.79998 -4.75707,0 -7.84274,1.79998 -3.08567,1.73568 -4.88564,5.14278 -1.79997,3.3428 -2.50711,8.29273 -0.70713,4.88564 -0.70713,11.12126 0,6.2999 0.70713,11.24983 0.70714,4.94993 2.50711,8.4213 1.79997,3.40709 4.88564,5.27135 3.08567,1.79998 7.84274,1.79998 4.69279,0 7.90702,-1.79998 3.21424,-1.86426 5.14278,-5.27135 1.99283,-3.47137 2.82853,-8.4213 0.8357,-4.94993 0.8357,-11.24983 z"
         style="font-style:normal;font-variant:normal;font-weight:normal;font-stretch:normal;font-family:'Liberation Serif';-inkscape-font-specification:'Liberation Serif';fill:#ffffff;fill-opacity:0.94117647"
         id="path4157"
         inkscape:connector-curvature="0" />
      <path
         d="m 573.59695,515.02771 -24.23535,57.47057 -4.75707,0 -24.8782,-57.21343 -6.17134,-1.60712 0,-2.89281 28.15672,0 0,2.89281 -9.57842,1.73569 17.61402,41.72081 16.8426,-41.84938 -9.57843,-1.60712 0,-2.89281 22.3711,0 0,2.89281 -5.78563,1.34998 z"
         style="font-style:normal;font-variant:normal;font-weight:normal;font-stretch:normal;font-family:'Liberation Serif';-inkscape-font-specification:'Liberation Serif';fill:#ffffff;fill-opacity:0.94117647"
         id="path4159"
         inkscape:connector-curvature="0" />
      <path
         d="m 599.50366,553.98427 q 0,5.33564 2.37854,8.22845 2.44282,2.82853 7.90702,2.82853 3.59995,0 7.45704,-0.44999 3.85708,-0.51428 7.45703,-1.54284 l 0,-47.76357 -9.12844,-1.60712 0,-2.89281 19.73542,0 0,55.92773 7.64988,1.60712 0,2.89282 -17.61402,0 -0.51427,-4.88565 q -1.86426,1.02856 -4.43565,2.1214 -2.57139,1.09284 -5.39992,1.99283 -2.76425,0.89998 -5.59277,1.47855 -2.82853,0.57856 -5.14278,0.57856 -3.47138,0 -6.29991,-0.96427 -2.82853,-0.96427 -4.88564,-3.08567 -1.99283,-2.1214 -3.14995,-5.4642 -1.09284,-3.40709 -1.09284,-8.22845 l 0,-39.47084 -7.71417,-1.60712 0,-2.89281 18.38543,0 0,43.19935 z"
         style="font-style:normal;font-variant:normal;font-weight:normal;font-stretch:normal;font-family:'Liberation Serif';-inkscape-font-specification:'Liberation Serif';fill:#ffffff;fill-opacity:0.94117647"
         id="path4161"
         inkscape:connector-curvature="0" />
      <path
         d="m 691.68805,554.24141 q 0,4.04994 -1.2857,7.45703 -1.22141,3.34281 -3.92137,5.78563 -2.69996,2.37854 -7.00703,3.72852 -4.2428,1.28569 -10.28556,1.28569 -3.02139,0 -5.97849,-0.38571 -2.89281,-0.32142 -5.39991,-0.8357 -2.50711,-0.44999 -4.37137,-0.96427 -1.86426,-0.51428 -2.69996,-0.8357 l 0,-14.84978 2.89282,0 3.14995,8.4213 q 1.99283,1.79998 5.14278,3.08567 3.14995,1.2857 7.39275,1.2857 5.97848,0 9.19271,-2.57139 3.27853,-2.63568 3.27853,-8.09988 0,-3.21424 -1.34998,-5.27135 -1.34998,-2.1214 -3.53566,-3.53566 -2.18569,-1.41427 -5.01421,-2.31425 -2.76425,-0.96428 -5.72135,-1.92855 -2.89281,-0.96427 -5.72134,-2.18568 -2.76424,-1.22141 -4.94993,-3.14995 -2.18568,-1.92854 -3.53566,-4.82136 -1.34998,-2.89281 -1.34998,-7.19989 0,-4.11422 1.47855,-7.32846 1.47855,-3.21424 4.11423,-5.39992 2.69996,-2.18568 6.36419,-3.27852 3.72851,-1.15713 8.16416,-1.15713 4.37136,0 8.54987,0.64285 4.17851,0.57856 8.0356,1.34998 l 0,13.17837 -3.02139,0 -2.69996,-7.00703 q -1.6714,-1.47855 -4.56421,-2.24997 -2.89282,-0.77142 -6.17134,-0.77142 -5.20707,0 -7.97131,2.57139 -2.69996,2.57139 -2.69996,6.94276 0,2.95709 1.34998,4.88564 1.34998,1.86425 3.53566,3.21423 2.24997,1.2857 5.0785,2.24997 2.82853,0.96427 5.78562,1.99283 2.9571,1.02855 5.78563,2.37853 2.82853,1.2857 5.01421,3.34281 2.24997,2.05711 3.59995,5.01421 1.34998,2.9571 1.34998,7.32846 z"
         style="font-style:normal;font-variant:normal;font-weight:normal;font-stretch:normal;font-family:'Liberation Serif';-inkscape-font-specification:'Liberation Serif';fill:#ffffff;fill-opacity:0.94117647"
         id="path4163"
         inkscape:connector-curvature="0" />
    </g>
  </g>
</svg>
